<?xml version="1.0" standalone="no"?>
<!DOCTYPE svg PUBLIC "-//W3C//DTD SVG 20010904//EN"
 "http://www.w3.org/TR/2001/REC-SVG-20010904/DTD/svg10.dtd">
<svg version="1.0" xmlns="http://www.w3.org/2000/svg"
 width="200.000000pt" height="200.000000pt" viewBox="0 0 200.000000 200.000000"
 preserveAspectRatio="xMidYMid meet">
<metadata>
Created by potrace 1.11, written by Peter Selinger 2001-2013
</metadata>
<g transform="translate(0.000000,200.000000) scale(0.100000,-0.100000)"
fill="#000000" stroke="none">
<path d="M1431 1079 c-12 -19 -21 -49 -21 -67 0 -36 27 -102 41 -102 12 0 11
7 -2 33 -19 35 -21 83 -5 122 21 49 13 57 -13 14z"/>
<path d="M1475 1090 c5 -14 9 -50 9 -80 0 -30 -4 -66 -9 -80 -8 -22 -7 -24 8
-11 14 11 31 65 31 96 0 29 -17 75 -31 87 -15 12 -16 10 -8 -12z"/>
<path d="M760 1075 c0 -20 -5 -25 -24 -25 -44 0 -71 -50 -48 -87 10 -16 53
-30 75 -25 14 3 17 15 17 83 0 46 -4 79 -10 79 -5 0 -10 -11 -10 -25z m-5 -85
c0 -19 -3 -34 -7 -32 -5 1 -14 2 -22 2 -18 0 -26 22 -19 50 4 14 12 20 27 18
17 -2 21 -10 21 -38z"/>
<path d="M1356 1091 c-4 -5 -3 -16 0 -25 4 -12 0 -16 -16 -16 -35 0 -60 -19
-60 -46 0 -46 17 -64 60 -64 l40 0 0 80 c0 72 -9 97 -24 71z m1 -96 c0 -39
-19 -52 -42 -29 -26 26 -14 64 19 64 19 0 23 -5 23 -35z"/>
<path d="M470 1081 c-48 -13 -62 -87 -24 -125 17 -18 94 -22 94 -6 0 6 -15 10
-33 10 -42 0 -57 15 -57 57 0 35 29 60 57 49 21 -8 39 4 22 15 -16 10 -24 10
-59 0z"/>
<path d="M934 1081 c-2 -2 -4 -35 -4 -73 0 -51 3 -69 13 -65 6 2 13 13 13 25
2 38 3 39 29 37 14 -2 27 1 31 6 3 5 -1 9 -8 10 -24 1 -50 7 -55 13 -12 12 18
33 43 30 16 -1 24 2 21 9 -3 11 -73 18 -83 8z"/>
<path d="M235 1030 l-29 -31 32 -30 c39 -37 57 -30 20 7 l-26 26 32 29 c21 19
26 29 15 29 -8 0 -28 -14 -44 -30z"/>
<path d="M320 1053 c0 -4 12 -17 26 -28 l27 -21 -29 -27 c-15 -14 -25 -30 -21
-33 4 -4 23 8 43 27 l35 34 -33 27 c-33 28 -48 34 -48 21z"/>
<path d="M1546 1053 c-11 -11 -6 -23 9 -23 8 0 15 4 15 9 0 13 -16 22 -24 14z"/>
<path d="M564 1026 c-13 -22 -14 -29 -2 -53 24 -51 98 -36 98 21 0 52 -68 74
-96 32z m64 -9 c18 -22 3 -57 -24 -57 -20 0 -24 5 -24 28 0 42 25 57 48 29z"/>
<path d="M820 1035 c-16 -19 -16 -60 0 -80 15 -18 66 -20 76 -3 5 7 2 9 -7 6
-18 -7 -59 8 -59 21 0 5 18 11 40 13 39 3 39 4 27 28 -15 30 -58 38 -77 15z
m51 -20 c-1 -5 -10 -11 -21 -11 -20 -1 -26 7 -13 20 10 9 34 3 34 -9z"/>
<path d="M1056 1034 c-18 -18 -20 -47 -6 -75 8 -13 21 -19 45 -19 19 0 35 4
35 9 0 5 -12 9 -26 9 -15 0 -30 6 -35 13 -6 11 1 15 31 17 42 3 47 11 30 43
-13 23 -53 25 -74 3z m54 -17 c0 -7 -11 -13 -24 -13 -15 0 -22 5 -19 13 7 17
43 17 43 0z"/>
<path d="M1176 1034 c-19 -18 -21 -65 -4 -82 14 -14 78 -16 78 -3 0 6 -15 11
-32 13 -45 4 -41 22 5 26 34 3 37 6 31 25 -12 39 -50 49 -78 21z m54 -18 c0
-8 -8 -13 -17 -11 -10 2 -22 4 -26 4 -5 1 -5 6 -2 11 9 15 45 12 45 -4z"/>
<path d="M1540 945 c0 -28 15 -34 24 -9 10 25 7 34 -9 34 -9 0 -15 -9 -15 -25z"/>
</g>
</svg>
